<svg preserveAspectRatio="xMidYMid meet" data-bbox="16.961 10 157.727 29" xmlns="http://www.w3.org/2000/svg" viewBox="16.961 10 157.727 29" height="50" width="192" data-type="color" role="presentation" aria-hidden="true" aria-label="">
    <g>
        <g clip-path="url(#e401510b-7e2f-4cfe-ac8b-cfa21f52725f_comp-m90ywmzb6)">
            <path fill="#A0AFC4" d="M131.682 10.319c2.039.255 3.019 1.335 2.646 3.272-1.446 7.5-2.935 14.992-4.575 22.45-.408 1.855-2.011 2.744-3.95 2.754-2.639.014-5.279.004-7.918.004v.017c-2.437 0-4.878-.097-7.308.03-2.023.107-2.979-.693-3.21-2.702-.163-1.408-.582-2.789-.926-4.171-.148-.595-.381-1.189-1.149-1.222-.704-.03-1.137.374-1.407.968-.252.556-.464 1.13-.687 1.7-2.305 5.89-2.302 5.851-8.5 5.404-2.315-.167-3.44-1.276-2.995-3.55a1230 1230 0 0 1 4.406-21.555c.488-2.28 2.096-3.403 4.435-3.406 4.873-.007 9.746.02 14.618-.028 1.561-.015 2.435.591 2.826 2.141.397 1.576.995 3.101 1.495 4.652.223.692.433 1.389 1.334 1.435.889.045 1.228-.571 1.477-1.276.17-.48.323-.965.483-1.448 1.981-5.95 2.549-6.265 8.905-5.47m42.994 2.987c-.157 2.37-.481 4.49-3.812 4.116-2.309-.26-4.673.01-7.01-.05-2.102-.053-2.592 1.314-2.665 2.963-.07 1.58.918 1.615 1.875 1.58l.26-.01a7 7 0 0 1 .495-.004c2.03.09 4.07-.046 6.098.067 1.053.058 2.921-.548 2.617 1.458-.253 1.666.259 4.228-2.795 4.19-2.441-.03-4.89.127-7.32-.033-2.15-.142-3.343.625-3.402 2.805-.07 2.55 1.936 1.446 3.08 1.557 1.814.175 3.657.023 5.487.055 2.855.05 3.34.774 2.45 3.573-.616 1.937-1.851 3.246-3.943 3.257q-14.337.08-28.674.02c-2.359-.009-3.234-1.392-2.793-3.67 1.356-7.012 2.691-14.028 4.077-21.034.501-2.538 2.062-3.902 4.701-3.901h14.032v-.018q6.711.001 13.422-.001c2.101-.002 4.007.274 3.82 3.08M58.328 10.28c9.857.045 19.714-.016 29.57.035 3.296.017 4.142 1.131 3.485 4.445-1.328 6.7-2.744 13.381-4.093 20.077-.547 2.716-2.121 4.016-4.9 3.99a726 726 0 0 0-7.469-.023l-7.469.012c-4.877.003-9.755.03-14.632-.006-3.58-.027-4.465-1.043-3.792-4.432 1.312-6.599 2.749-13.173 4.021-19.78.583-3.025 2.26-4.332 5.28-4.318M30.528 15c-1.392 6.682-2.94 13.335-4.183 20.045-.475 2.568-1.403 3.572-4.141 3.511-6.72-.149-5.446-.096-4.41-5.447 1.16-6.002 2.493-11.97 3.771-17.948.893-4.173.963-4.436 4.645-4.45h1.32c3.863.01 3.853.182 2.998 4.289m8.215-4.341.492.067c.271.038.538.074.794.094 2.407.184 1.016 2.074.818 3.07-1.448 7.3-3.12 14.556-4.547 21.86-.419 2.138-1.3 3.105-3.44 2.691-2.232.354-2.923-.398-2.397-2.713 1.715-7.556 3.351-15.133 4.819-22.74.484-2.51 1.98-2.519 3.461-2.33m9.42.116c2.113.303 1.086 1.774.87 2.831a3196 3196 0 0 1-4.622 22.154c-.292 1.373-.438 2.998-2.425 2.703-1.625.077-2.353-.312-1.95-2.128 1.748-7.86 3.424-15.739 4.998-23.637.401-2.01 1.645-2.136 3.13-1.923m28.445 5.112c-1.913.4-2.969 1.201-.886 2.944.719.602.49 1.499.304 2.298q-.938 4.015-1.904 8.026c-.24.995-.509 1.985-1.44 2.6-.858.565-2.638.55-2.153 2.035.32.982 1.213.922 2.106.844l.335-.028c.276-.021.546-.03.791.002.6.078 1.217.013 1.826.012.71 0 1.42.003 2.131-.002 2.14-.013 4.045-.113 1.787-2.918-.61-.758-.182-1.788.014-2.67.641-2.883 1.446-5.735 1.95-8.64.319-1.83 1.99-4.023.5-5.46-1.592-1.532-3.544.576-5.361.957" clip-rule="evenodd" fill-rule="evenodd" data-color="1"></path>
        </g>
        <defs fill="none">
            <clipPath id="e401510b-7e2f-4cfe-ac8b-cfa21f52725f_comp-m90ywmzb6">
                <path fill="#ffffff" d="M175 10v29H16V10z"></path>
            </clipPath>
        </defs>
    </g>
</svg>
